# xmcd
#
# Track frame offsets: 
#        150
#        15672
#        32784
#        55093
#        74928
#        94383
#        109689
#        127311
#        145436
#        163555
#        178414
#        195089
#        214251
#
# Disc length: 3019 seconds
#
# Revision: 0
# Processed by: cddbd v1.5.2PL0 Copyright (c) Steve Scherf et al.
# Submitted via: ExactAudioCopy v0.99pb5
#
DISCID=ca0bc90d
DTITLE=Shanna Waterstown - A Real Woman
DYEAR=2011
DGENRE=Blues/Soul
TTITLE0=Hold My Hand
TTITLE1=Miracle
TTITLE2=You Let Me Down
TTITLE3=A Real Woman
TTITLE4=Sugar Daddy
TTITLE5=That's Just The Way It Is
TTITLE6=Misery
TTITLE7=Turn Me On
TTITLE8=Watch What You Say
TTITLE9=Bluesin
TTITLE10=I'm Coming Home
TTITLE11=A Good Man
TTITLE12=Nobody Loves Me Like You Do
EXTD=
EXTT0=
EXTT1=
EXTT2=
EXTT3=
EXTT4=
EXTT5=
EXTT6=
EXTT7=
EXTT8=
EXTT9=
EXTT10=
EXTT11=
EXTT12=
PLAYORDER=
